<?xml version="1.0" standalone="no"?>
<!DOCTYPE svg PUBLIC "-//W3C//DTD SVG 20010904//EN"
 "http://www.w3.org/TR/2001/REC-SVG-20010904/DTD/svg10.dtd">
<svg version="1.0" xmlns="http://www.w3.org/2000/svg"
 width="1280.000000pt" height="1243.000000pt" viewBox="0 0 1280.000000 1243.000000"
 preserveAspectRatio="xMidYMid meet">

<g transform="translate(0.000000,1243.000000) scale(0.100000,-0.100000)"
fill="#000000" stroke="none">
<path d="M6854 11178 c-161 -160 -298 -304 -305 -319 -6 -16 -8 -41 -4 -56 7
-31 550 -584 597 -609 45 -23 86 -18 120 16 26 27 30 36 25 68 -6 31 -35 64
-193 223 -143 143 -185 191 -180 205 6 15 18 16 124 11 64 -4 146 -11 182 -17
310 -50 368 -61 575 -111 163 -39 490 -145 610 -198 11 -5 38 -16 60 -26 22
-9 49 -20 60 -25 11 -4 74 -35 140 -68 66 -33 131 -63 145 -67 27 -9 305 -172
417 -246 180 -118 288 -200 569 -431 80 -65 372 -359 465 -467 122 -141 205
-247 295 -371 86 -120 224 -333 224 -346 0 -3 10 -20 23 -37 53 -75 185 -345
270 -552 45 -110 120 -327 152 -440 9 -33 23 -82 31 -109 8 -26 14 -55 14 -64
0 -9 4 -29 9 -46 5 -17 17 -67 26 -111 9 -44 20 -100 25 -125 16 -75 31 -171
40 -253 5 -44 11 -91 14 -105 12 -56 36 -409 36 -525 0 -157 -18 -473 -31
-557 -6 -36 -14 -96 -19 -135 -5 -38 -16 -110 -26 -160 -9 -49 -19 -114 -21
-142 -4 -48 -2 -55 25 -83 37 -36 86 -40 125 -10 35 28 67 145 87 320 14 127
31 276 40 367 6 50 10 217 10 369 0 263 -6 372 -32 594 -6 52 -14 124 -18 160
-4 36 -13 78 -19 93 -6 16 -11 45 -11 66 0 21 -4 51 -9 67 -5 16 -17 65 -26
109 -54 245 -160 608 -201 686 -7 15 -21 49 -30 76 -18 56 -28 79 -98 228
-328 699 -748 1236 -1381 1766 -175 146 -449 336 -675 468 -157 91 -490 257
-583 290 -45 16 -104 39 -132 51 -70 32 -76 34 -210 78 -414 135 -717 197
-1099 226 -117 9 -171 17 -176 27 -11 17 58 95 239 271 134 130 141 139 141
176 0 25 -8 49 -21 66 -17 22 -28 26 -72 26 l-51 0 -292 -292z"/>
<path d="M5455 10781 c-162 -41 -331 -89 -355 -101 -8 -4 -40 -15 -70 -25 -30
-9 -64 -20 -75 -25 -11 -4 -38 -14 -60 -23 -257 -97 -520 -221 -718 -338 -32
-19 -99 -58 -149 -87 -177 -105 -488 -334 -704 -519 -406 -349 -726 -748
-1029 -1283 -246 -435 -449 -993 -548 -1510 -35 -180 -58 -329 -54 -338 3 -4
-1 -47 -8 -97 -27 -186 -40 -552 -27 -743 34 -498 95 -835 217 -1207 25 -77
48 -157 51 -178 6 -32 4 -37 -13 -37 -26 0 -204 75 -345 145 -153 76 -208 74
-242 -6 -12 -28 -12 -39 -1 -65 14 -34 36 -50 115 -83 30 -13 93 -42 140 -63
47 -22 105 -48 130 -58 25 -10 88 -38 140 -63 52 -24 118 -52 145 -63 28 -10
67 -28 87 -41 21 -13 47 -23 58 -23 29 0 92 70 114 127 21 53 44 105 106 238
23 50 62 135 87 190 24 55 58 127 74 161 40 83 39 134 -2 168 -42 35 -87 35
-121 -1 -26 -28 -35 -47 -104 -208 -21 -49 -60 -134 -86 -187 -73 -150 -82
-142 -163 137 -9 33 -21 74 -26 90 -20 69 -60 249 -83 375 -24 125 -37 216
-66 445 -11 89 -15 848 -4 866 2 5 9 48 14 96 14 130 65 434 91 543 59 250
114 439 192 650 53 146 161 398 208 486 216 405 359 619 640 959 170 206 293
323 569 546 223 181 468 352 625 439 33 18 76 43 95 55 20 13 63 37 95 54 33
17 67 35 75 40 8 5 56 27 105 49 50 23 122 55 160 73 173 78 509 192 675 229
30 7 76 18 102 26 26 8 55 14 64 14 34 0 124 34 143 54 34 36 31 93 -5 130
-36 35 -74 33 -259 -13z"/>
<path d="M7050 9434 c-14 -2 -58 -9 -99 -15 -176 -26 -338 -106 -479 -236 -44
-40 -85 -73 -90 -73 -6 0 -39 30 -74 66 -102 107 -218 176 -359 215 -125 34
-372 19 -504 -31 -29 -11 -91 -61 -196 -157 -38 -35 -72 -63 -77 -63 -6 0 -17
10 -25 23 -30 46 -130 137 -183 167 -71 40 -152 60 -239 60 -272 -1 -471 -193
-503 -485 l-7 -59 -105 -13 c-116 -14 -225 -45 -273 -77 -18 -12 -44 -27 -59
-35 -86 -44 -213 -181 -276 -298 -96 -178 -109 -397 -36 -627 l18 -58 -24 -19
c-74 -55 -99 -78 -143 -128 -57 -66 -121 -192 -137 -273 -14 -73 -14 -194 1
-266 6 -31 27 -92 46 -134 37 -80 38 -108 4 -108 -33 0 -51 -11 -66 -41 -13
-23 -15 -106 -15 -508 l0 -480 24 -28 24 -28 159 -5 158 -5 1 -1449 0 -1449
28 -23 27 -24 1072 -1 c590 0 1131 -3 1202 -7 72 -4 191 -6 265 -5 74 1 311 1
525 1 459 -1 369 -1 1709 7 l1059 7 23 24 24 23 0 1439 c0 1248 2 1441 15
1452 10 8 59 11 158 11 129 -1 147 1 168 18 l24 19 0 502 0 502 -28 24 c-22
19 -40 24 -81 24 -78 0 -81 9 -28 102 54 98 67 139 76 243 14 156 -34 296
-141 414 l-56 62 44 92 c41 87 44 98 47 195 5 116 -5 165 -51 260 -51 104
-199 234 -293 258 -36 9 -44 32 -28 79 17 49 18 176 2 224 -7 20 -31 66 -54
102 -87 138 -247 199 -404 153 -108 -31 -114 -30 -146 12 -39 52 -153 162
-185 179 -15 8 -64 24 -110 36 -153 40 -285 26 -430 -45 -39 -19 -83 -37 -99
-41 -30 -7 -77 -61 -146 -170 -20 -33 -63 -91 -94 -130 -136 -169 -198 -274
-251 -430 -30 -87 -37 -100 -72 -122 -21 -13 -66 -49 -100 -80 l-61 -56 -15
23 c-9 13 -31 42 -48 63 -45 54 -42 74 17 125 78 67 114 126 352 572 22 41 46
82 53 90 7 8 25 38 40 65 16 28 53 87 83 132 31 47 52 89 49 97 -12 30 -133
78 -267 106 -57 12 -296 22 -340 14z m240 -149 c113 -17 185 -37 185 -52 0
-12 -45 -66 -67 -80 -21 -13 -111 -123 -146 -178 -17 -27 -36 -55 -42 -62 -9
-10 -40 -74 -151 -306 -57 -121 -154 -226 -182 -198 -6 6 -25 11 -42 11 -17 0
-35 4 -41 9 -5 5 -43 14 -84 21 -101 15 -109 15 -154 6 l-38 -7 8 58 c9 65 9
58 -1 208 -6 99 -23 195 -44 235 -17 34 73 143 169 205 115 73 222 109 400
133 93 13 134 12 230 -3z m-1410 -19 c83 -18 163 -49 209 -79 96 -64 206 -187
237 -265 8 -20 19 -46 24 -57 27 -58 39 -164 28 -267 -5 -57 -16 -116 -23
-133 -7 -16 -25 -56 -39 -89 -32 -71 -32 -93 -4 -123 23 -24 74 -31 106 -13
60 33 158 60 216 60 71 0 195 -42 260 -87 49 -35 84 -83 50 -68 -58 24 -223
34 -311 20 -147 -24 -321 -143 -407 -278 -44 -68 -54 -93 -73 -177 -36 -153
-27 -265 29 -399 10 -24 17 -46 14 -48 -2 -2 -28 -11 -58 -18 -171 -45 -315
-192 -359 -367 -12 -50 -14 -52 -79 -48 -52 3 -63 13 -84 74 -26 75 -26 211
-1 285 50 150 174 290 300 336 86 32 95 41 95 94 0 44 -4 49 -88 136 -73 75
-203 175 -228 175 -4 0 -22 11 -40 25 -18 14 -38 25 -44 25 -7 0 -26 6 -43 14
-69 30 -105 36 -229 36 l-129 0 34 34 c34 34 71 100 80 146 19 89 41 161 64
206 21 42 24 56 16 80 -12 36 -39 50 -126 64 -80 12 -135 2 -217 -43 -120 -66
-186 -161 -198 -284 l-7 -68 -40 -2 c-62 -4 -153 -34 -180 -59 -31 -29 -33
-72 -4 -108 23 -30 71 -35 103 -11 31 23 101 19 142 -9 20 -13 42 -33 49 -44
14 -18 11 -19 -73 -25 -51 -3 -110 -14 -141 -26 -95 -36 -198 -115 -261 -199
-40 -55 -114 -193 -133 -252 -10 -30 -22 -64 -27 -75 -13 -31 -40 -152 -40
-178 0 -31 33 -60 67 -59 230 5 276 4 296 -5 12 -6 42 -19 67 -29 93 -38 249
-189 250 -241 0 -16 -108 -18 -900 -13 l-584 3 -48 50 c-37 39 -53 66 -68 117
-39 135 -35 286 11 385 73 158 194 253 368 291 81 17 88 17 175 -1 94 -18 199
-69 241 -115 35 -38 68 -51 103 -38 35 14 66 60 57 87 -12 39 -116 121 -211
167 -75 37 -111 48 -177 56 -75 9 -210 4 -264 -9 -54 -13 -95 178 -74 343 7
52 19 107 26 122 8 15 24 49 36 76 50 111 210 254 326 293 26 9 52 20 57 24
13 12 302 11 324 0 9 -5 42 -19 72 -31 72 -29 164 -95 223 -160 26 -28 47 -55
47 -58 1 -17 69 -83 86 -84 53 -4 94 29 94 77 0 47 -161 237 -245 291 -16 10
-32 21 -35 24 -11 12 -69 39 -139 65 l-73 28 4 84 c2 46 10 89 16 95 7 7 12
20 12 29 0 47 156 189 208 189 10 0 23 5 30 12 17 17 136 16 197 -2 28 -8 73
-29 100 -47 48 -30 125 -112 125 -131 0 -8 21 -57 39 -91 4 -8 19 -23 33 -34
38 -29 69 -14 122 58 160 218 403 322 636 271z m2470 -180 c45 -14 147 -71
180 -101 9 -9 35 -50 56 -93 36 -72 39 -84 42 -183 4 -97 2 -111 -23 -170 -41
-96 -43 -123 -10 -154 16 -14 38 -25 51 -25 25 0 94 62 94 85 0 7 6 26 14 42
29 58 36 103 36 225 l0 127 32 15 c45 23 149 21 196 -3 34 -18 80 -58 108 -93
11 -14 21 -49 31 -105 8 -50 -14 -124 -52 -172 -26 -32 -35 -54 -35 -81 0 -46
25 -65 90 -73 106 -12 166 -38 237 -101 113 -102 151 -264 97 -423 -24 -74
-40 -86 -90 -69 -91 32 -115 36 -197 36 -172 0 -301 -58 -323 -145 -17 -67 46
-83 156 -40 56 22 79 25 188 25 73 0 132 -5 145 -11 44 -23 166 -140 192 -184
65 -112 80 -222 44 -335 -32 -104 -89 -181 -169 -229 -32 -19 -50 -21 -212
-21 l-178 0 0 44 c0 172 -125 362 -292 445 l-68 33 0 107 c0 102 -17 188 -41
216 -5 5 -9 15 -9 23 0 26 -91 152 -137 190 -25 20 -57 47 -71 60 -15 12 -36
25 -47 29 -11 3 -37 17 -57 29 -21 13 -46 24 -57 24 -10 0 -35 7 -56 16 -28
11 -63 14 -149 11 -61 -2 -121 -7 -133 -11 -19 -7 -24 -4 -33 20 -5 16 -14 36
-18 44 -5 8 -17 31 -28 50 -54 99 -204 192 -329 204 -49 5 -53 12 -25 41 34
36 84 50 131 36 22 -7 39 -15 39 -20 0 -17 100 -105 151 -133 67 -38 124 -49
269 -54 151 -6 179 6 199 86 27 108 -14 290 -92 407 -51 77 -161 173 -198 173
-15 0 -99 50 -99 60 0 12 58 66 88 81 15 7 34 18 42 24 8 6 35 17 60 24 25 8
50 15 55 17 20 8 161 -6 205 -20z m-566 -275 c3 -4 23 -11 45 -15 93 -15 195
-94 258 -200 43 -71 49 -101 37 -165 -6 -31 -7 -31 -67 -31 -33 0 -77 5 -96
11 -50 16 -101 42 -101 51 0 5 -7 8 -15 8 -8 0 -27 21 -42 47 -15 26 -33 57
-40 68 -7 11 -17 31 -23 45 -6 13 -14 27 -18 30 -8 6 -72 126 -72 135 0 19
123 35 134 16z m-2589 -453 c-3 -13 -11 -40 -16 -61 -18 -72 -43 -111 -85
-134 -70 -39 -89 -11 -63 92 15 60 89 125 142 125 26 0 28 -3 22 -22z m2405
-178 c56 -29 108 -77 131 -121 29 -57 25 -80 -22 -114 -94 -69 -219 -239 -219
-298 0 -8 -4 -19 -10 -22 -15 -9 -12 -68 6 -93 23 -33 62 -28 107 14 20 19 37
39 37 44 0 5 6 15 13 22 6 8 21 31 32 51 47 87 131 166 210 198 17 6 41 17 54
23 14 6 72 11 135 10 124 -1 252 -30 270 -61 5 -10 33 -43 62 -73 71 -75 108
-155 124 -262 16 -105 11 -113 -63 -122 -85 -11 -158 -37 -227 -81 -100 -65
-170 -146 -170 -198 0 -40 36 -77 74 -77 27 0 42 9 78 48 57 60 101 93 158
116 25 10 53 22 62 27 10 5 44 9 76 9 51 0 86 -9 184 -48 15 -6 59 -42 97 -79
74 -73 83 -97 85 -213 l1 -45 -718 -3 -718 -2 2 57 c2 88 -18 283 -35 328 -48
133 -147 276 -270 393 -81 77 -146 122 -236 164 -134 62 -176 69 -215 35 -25
-21 -28 -30 -27 -76 0 -29 6 -59 13 -68 7 -8 15 -51 17 -96 3 -68 -1 -103 -27
-207 -18 -69 -36 -126 -41 -128 -6 -2 -10 -12 -10 -22 0 -15 -11 -48 -39 -115
-21 -49 -41 -150 -41 -205 l0 -60 -294 0 c-174 0 -297 4 -301 9 -3 6 0 29 7
53 17 55 133 178 170 178 13 0 30 6 37 13 8 8 49 12 130 12 103 0 122 3 140
19 22 20 29 80 11 91 -19 12 -86 109 -104 150 -10 22 -22 48 -27 57 -5 10 -10
73 -11 140 -2 121 -1 124 32 193 41 86 130 177 217 223 52 28 76 33 155 38 91
6 216 -7 227 -24 3 -4 28 -16 55 -26 27 -10 65 -36 86 -57 29 -30 45 -39 72
-39 50 0 76 32 84 105 11 93 64 166 156 213 58 29 162 31 218 2z m-656 -624
c88 -58 124 -94 201 -198 43 -58 62 -90 106 -180 5 -10 9 -24 9 -32 0 -7 7
-26 15 -42 21 -41 16 -227 -7 -250 -18 -18 -58 -19 -403 -12 l-150 3 -3 50
c-3 45 16 131 39 177 5 10 9 26 9 37 0 10 7 24 15 31 8 7 15 21 15 31 0 18 23
89 40 120 5 10 12 85 16 168 4 83 9 151 12 151 3 0 41 -24 86 -54z m-1290 -28
c-70 -72 -117 -138 -146 -206 -11 -26 -26 -60 -33 -77 -29 -66 -39 -241 -18
-337 8 -37 12 -72 8 -78 -10 -16 -340 -13 -353 3 -6 6 -27 44 -47 84 -42 84
-170 234 -217 256 -94 43 -128 57 -178 72 -114 35 -132 47 -87 59 54 14 148 6
209 -19 89 -36 101 -34 148 28 54 72 113 112 201 137 96 26 121 25 204 -10 38
-17 74 -30 81 -30 6 0 31 24 55 53 73 87 132 125 199 126 l34 1 -60 -62z
m-1044 -843 c129 -3 1322 -5 2651 -5 l2416 0 8 -73 c10 -86 10 -225 0 -528
l-7 -226 -127 -9 c-69 -4 -220 -6 -336 -4 -238 6 -1721 6 -2370 1 -623 -5
-3539 9 -3547 17 -10 10 -15 794 -5 810 6 9 101 12 415 13 224 1 418 5 432 9
14 4 72 6 130 4 58 -2 211 -6 340 -9z m265 -989 c72 0 983 1 2025 1 1042 1
2001 2 2131 3 129 1 247 -2 262 -5 l27 -7 0 -409 c0 -225 -3 -409 -7 -409 -5
-1 -423 -1 -931 -1 -936 -1 -952 -1 -952 33 0 20 -143 189 -198 235 -32 27
-59 50 -62 53 -11 13 -133 90 -141 90 -5 0 -23 8 -41 18 -74 41 -177 80 -248
95 -237 49 -288 49 -505 1 -189 -43 -379 -143 -523 -278 -45 -41 -154 -173
-177 -213 l-19 -33 -121 -1 c-66 0 -435 0 -820 0 -385 1 -752 1 -815 1 l-115
0 3 407 c1 224 5 409 8 412 12 12 382 18 729 12 198 -3 419 -6 490 -5z m1842
-451 c54 -14 111 -31 128 -38 111 -45 272 -154 342 -230 103 -112 197 -271
227 -387 8 -30 20 -68 27 -85 20 -47 18 -359 -3 -416 -9 -24 -22 -66 -29 -94
-29 -117 -154 -313 -262 -411 -92 -84 -240 -172 -342 -204 -22 -7 -50 -16 -62
-21 -91 -34 -336 -43 -448 -15 -124 30 -146 37 -207 65 -176 80 -362 247 -444
396 -39 73 -70 140 -83 185 -6 19 -18 60 -28 90 -13 43 -17 91 -17 220 0 168
2 183 51 320 32 92 39 107 81 179 131 219 343 377 597 445 134 36 336 36 472
1z m-1289 -540 c10 -4 10 -10 2 -26 -16 -29 -37 -105 -45 -164 -4 -27 -11 -55
-17 -62 -14 -17 -3 -294 15 -378 20 -93 37 -148 48 -160 5 -5 9 -13 9 -17 0
-4 -91 -8 -203 -8 -139 0 -224 -5 -272 -15 -62 -13 -94 -13 -280 1 -132 10
-262 14 -349 11 -76 -3 -262 -3 -412 0 l-274 6 2 406 3 406 50 5 c63 6 1705 2
1723 -5z m3877 1 c13 -5 15 -56 15 -411 l0 -405 -317 -1 c-648 -1 -1467 2
-1470 5 -2 2 3 16 12 32 8 16 15 35 15 43 0 8 4 28 9 45 37 122 43 178 38 319
-3 78 -10 156 -16 172 -9 26 -29 102 -48 182 -5 22 -2 22 88 25 173 5 1658 0
1674 -6z m1 -981 c9 -3 27 -159 24 -215 0 -8 -3 -145 -6 -305 -3 -159 -7 -291
-9 -293 -2 -2 -1037 -5 -2302 -6 -1529 -2 -2310 -6 -2334 -13 -28 -8 -47 -7
-80 5 -34 11 -69 13 -159 7 -63 -3 -131 -6 -150 -5 -19 0 -168 4 -330 8 l-295
7 3 195 c2 107 10 269 18 360 7 91 15 185 16 210 l3 45 900 3 900 2 56 -52
c32 -30 62 -68 68 -88 12 -35 93 -121 166 -175 22 -17 42 -32 45 -35 13 -14
111 -70 165 -95 33 -15 67 -30 75 -34 52 -26 203 -59 325 -70 138 -12 361 19
475 66 211 87 416 245 516 398 21 33 46 65 54 70 23 15 1809 25 1856 10z"/>
<path d="M5723 8930 c-12 -5 -26 -18 -32 -29 -21 -38 -12 -69 35 -122 130
-147 133 -299 9 -439 -54 -61 -59 -98 -19 -135 15 -14 37 -25 48 -25 47 0 120
74 164 165 35 72 46 119 46 205 0 36 -4 83 -8 105 -14 67 -68 166 -121 221
-52 54 -84 68 -122 54z"/>
<path d="M4170 8394 c-170 -58 -298 -216 -230 -284 48 -48 94 -34 151 44 18
25 40 48 51 51 10 4 18 10 18 14 0 9 47 25 118 41 41 10 59 10 83 0 27 -11 32
-10 54 10 16 15 25 34 25 54 -1 90 -120 120 -270 70z"/>
<path d="M8760 8213 c-38 -7 -172 -64 -203 -85 -38 -27 -58 -68 -45 -93 18
-33 51 -65 67 -65 8 0 47 19 85 42 68 40 74 42 152 41 76 0 85 -2 142 -38 45
-27 68 -36 86 -31 38 9 56 34 56 76 0 30 -6 44 -33 66 -18 16 -50 38 -72 48
-22 10 -47 22 -56 27 -21 10 -147 19 -179 12z"/>
<path d="M7890 7494 c-40 -15 -80 -35 -85 -44 -3 -6 -13 -10 -20 -10 -26 0
-84 -73 -125 -157 -38 -78 -40 -86 -40 -176 0 -79 3 -98 20 -120 24 -31 63
-41 93 -26 41 22 48 40 42 105 -4 37 -2 72 6 90 49 118 53 124 157 194 55 37
62 46 62 74 0 19 -8 40 -18 49 -20 18 -69 29 -92 21z"/>
<path d="M5875 4682 c-48 -4 -85 -35 -85 -72 0 -61 128 -253 239 -358 36 -34
91 -75 121 -90 49 -24 66 -27 160 -27 l105 0 3 -160 c3 -178 9 -195 67 -195
58 0 64 17 67 195 l3 160 105 1 c93 0 111 3 161 27 30 15 69 41 85 59 16 17
56 59 89 92 70 70 174 229 181 278 4 25 0 40 -16 61 l-22 28 -162 -4 c-88 -2
-190 -10 -226 -17 -75 -14 -197 -70 -231 -106 -29 -31 -34 -30 -76 7 -42 36
-120 73 -188 89 -28 6 -68 15 -90 20 -44 10 -227 18 -290 12z m1076 -180 c-5
-9 -18 -26 -28 -37 -10 -11 -31 -38 -46 -61 -25 -37 -79 -79 -144 -113 -33
-17 -113 -14 -135 6 -39 35 -12 115 60 169 58 45 115 59 214 56 79 -3 87 -5
79 -20z m-749 9 c101 -12 198 -97 198 -171 0 -23 -14 -41 -47 -58 -71 -38
-179 24 -296 169 -20 25 -37 51 -37 58 0 12 89 14 182 2z"/>
<path d="M11055 4126 c-137 -55 -375 -146 -445 -171 -136 -48 -268 -106 -285
-124 -9 -10 -18 -34 -21 -53 -5 -27 -1 -40 20 -65 49 -58 75 -54 306 46 36 16
90 36 120 46 30 10 65 24 77 31 12 8 38 14 58 14 31 0 35 -3 35 -25 0 -24
-115 -241 -213 -400 -104 -169 -310 -448 -437 -590 -171 -192 -286 -307 -455
-454 -249 -217 -585 -454 -845 -596 -69 -38 -145 -79 -170 -93 -61 -33 -385
-181 -435 -197 -22 -8 -78 -28 -125 -45 -135 -50 -316 -109 -370 -120 -19 -4
-62 -15 -95 -24 -130 -36 -414 -90 -555 -106 -47 -6 -96 -13 -110 -16 -76 -18
-643 -22 -830 -5 -179 15 -307 29 -365 40 -27 6 -79 15 -115 21 -97 17 -300
61 -365 80 -16 5 -50 14 -75 20 -198 53 -484 156 -680 247 -83 39 -348 170
-425 212 -165 89 -547 360 -735 522 -325 280 -542 521 -826 917 -52 72 -82 89
-135 73 -42 -13 -69 -47 -69 -89 0 -44 195 -321 350 -497 369 -419 735 -732
1172 -1004 81 -50 150 -91 153 -91 3 0 24 -12 47 -26 49 -31 337 -175 388
-194 19 -7 67 -28 105 -46 39 -18 88 -39 110 -47 22 -8 72 -27 110 -41 75 -29
200 -72 250 -86 17 -5 55 -16 85 -25 77 -23 240 -66 270 -71 14 -3 54 -11 90
-19 36 -8 92 -18 125 -24 33 -5 98 -16 145 -25 185 -32 570 -66 765 -66 121 0
460 23 570 39 39 5 86 12 105 15 19 2 76 12 125 21 50 9 110 21 135 25 111 19
355 82 450 115 36 13 103 35 150 49 89 28 263 91 291 106 9 4 56 25 105 45
236 98 614 306 865 476 434 295 852 693 1173 1119 167 221 319 461 422 665 39
77 64 115 75 115 11 0 28 -28 53 -92 21 -51 51 -124 67 -163 16 -38 29 -80 29
-92 0 -12 5 -25 10 -28 6 -3 10 -13 10 -20 0 -8 11 -39 26 -68 26 -56 54 -77
100 -77 32 0 94 59 94 90 0 18 -60 190 -119 342 -11 28 -40 105 -51 133 -4 11
-15 38 -23 60 -9 22 -27 74 -42 115 -55 157 -65 173 -110 190 -36 14 -41 13
-110 -14z"/>
</g>
</svg>
